HIERARCHY
ROOT Hips
{
	OFFSET 0.00000 0.00000 0.00000
	CHANNELS 6 Xposition Yposition Zposition Zrotation Yrotation Xrotation 
	JOINT LHipJoint
	{
		OFFSET 0 0 0
		CHANNELS 3 Zrotation Yrotation Xrotation
		JOINT LeftUpLeg
		{
			OFFSET 3.13874 -1.57224 1.49786
			CHANNELS 3 Zrotation Yrotation Xrotation
			JOINT LeftLeg
			{
				OFFSET 2.10955 -5.79594 0.00000
				CHANNELS 3 Zrotation Yrotation Xrotation
				JOINT LeftFoot
				{
					OFFSET 2.41843 -6.64458 0.00000
					CHANNELS 3 Zrotation Yrotation Xrotation
					JOINT LeftToeBase
					{
						OFFSET 0.04713 -0.12948 1.66229
						CHANNELS 3 Zrotation Yrotation Xrotation
						End Site
						{
							OFFSET 0.00000 -0.00000 0.85167
						}
					}
				}
			}
		}
	}
	JOINT RHipJoint
	{
		OFFSET 0 0 0
		CHANNELS 3 Zrotation Yrotation Xrotation
		JOINT RightUpLeg
		{
			OFFSET -3.13988 -1.57224 1.49786
			CHANNELS 3 Zrotation Yrotation Xrotation
			JOINT RightLeg
			{
				OFFSET -2.15006 -5.90725 0.00000
				CHANNELS 3 Zrotation Yrotation Xrotation
				JOINT RightFoot
				{
					OFFSET -2.34496 -6.44273 0.00000
					CHANNELS 3 Zrotation Yrotation Xrotation
					JOINT RightToeBase
					{
						OFFSET -0.08699 -0.23900 1.55223
						CHANNELS 3 Zrotation Yrotation Xrotation
						End Site
						{
							OFFSET -0.00000 -0.00000 0.80281
						}
					}
				}
			}
		}
	}
	JOINT LowerBack
	{
		OFFSET 0 0 0
		CHANNELS 3 Zrotation Yrotation Xrotation
		JOINT Spine
		{
			OFFSET 0.01292 1.96517 -0.16495
			CHANNELS 3 Zrotation Yrotation Xrotation
			JOINT Spine1
			{
				OFFSET 0.02122 1.88666 0.19706
				CHANNELS 3 Zrotation Yrotation Xrotation
				JOINT Neck
				{
					OFFSET 0 0 0
					CHANNELS 3 Zrotation Yrotation Xrotation
					JOINT Neck1
					{
						OFFSET -0.01683 1.81591 0.07903
						CHANNELS 3 Zrotation Yrotation Xrotation
						JOINT Head
						{
							OFFSET 0.00815 1.74013 -0.47700
							CHANNELS 3 Zrotation Yrotation Xrotation
							End Site
							{
								OFFSET -0.00204 1.83225 -0.16933
							}
						}
					}
				}
				JOINT LeftShoulder
				{
					OFFSET 0 0 0
					CHANNELS 3 Zrotation Yrotation Xrotation
					JOINT LeftArm
					{
						OFFSET 3.38482 1.41533 0.19802
						CHANNELS 3 Zrotation Yrotation Xrotation
						JOINT LeftForeArm
						{
							OFFSET 4.32712 -0.00000 0.00000
							CHANNELS 3 Zrotation Yrotation Xrotation
							JOINT LeftHand
							{
								OFFSET 3.28587 -0.00000 -0.00000
								CHANNELS 3 Zrotation Yrotation Xrotation
								JOINT LeftFingerBase
								{
									OFFSET 0 0 0
									CHANNELS 3 Zrotation Yrotation Xrotation
									JOINT LeftHandIndex1
									{
										OFFSET 0.43316 -0.00000 -0.00000
										CHANNELS 3 Zrotation Yrotation Xrotation
										End Site
										{
											OFFSET 0.34922 -0.00000 -0.00000
										}
									}
								}
								JOINT LThumb
								{
									OFFSET 0 0 0
									CHANNELS 3 Zrotation Yrotation Xrotation
									End Site
									{
										OFFSET 0.35456 -0.00000 0.35456
									}
								}
							}
						}
					}
				}
				JOINT RightShoulder
				{
					OFFSET 0 0 0
					CHANNELS 3 Zrotation Yrotation Xrotation
					JOINT RightArm
					{
						OFFSET -3.09725 1.62858 -0.14144
						CHANNELS 3 Zrotation Yrotation Xrotation
						JOINT RightForeArm
						{
							OFFSET -4.29104 -0.00000 0.00000
							CHANNELS 3 Zrotation Yrotation Xrotation
							JOINT RightHand
							{
								OFFSET -3.22720 -0.00000 -0.00000
								CHANNELS 3 Zrotation Yrotation Xrotation
								JOINT RightFingerBase
								{
									OFFSET 0 0 0
									CHANNELS 3 Zrotation Yrotation Xrotation
									JOINT RightHandIndex1
									{
										OFFSET -0.54362 -0.00000 -0.00000
										CHANNELS 3 Zrotation Yrotation Xrotation
										End Site
										{
											OFFSET -0.43828 -0.00000 -0.00000
										}
									}
								}
								JOINT RThumb
								{
									OFFSET 0 0 0
									CHANNELS 3 Zrotation Yrotation Xrotation
									End Site
									{
										OFFSET -0.44497 -0.00000 0.44497
									}
								}
							}
						}
					}
				}
			}
		}
	}
}
MOTION
Frames: 14
Frame Time: 0.0166666
-15.3191 15.3006 1.3337 -170.9630 -60.1253 181.2150 0.0000 0.0000 0.0000 1.0425 -26.4900 -27.0677 0.0888 1.9218 5.2897 8.2412 -11.0784 -53.5977 2.9572 -10.6255 -31.0270 0.0000 0.0000 0.0000 32.4688 14.1082 20.2788 -0.0000 0.0274 -0.0752 -2.8914 -6.3441 -34.8056 -0.3704 3.9091 -10.8211 2.9168 1.8503 9.6268 2.4351 3.0012 -9.9194 0.4710 1.0758 -16.6089 11.8824 6.5483 -14.4842 -7.4247 7.7512 24.5801 -3.6256 3.6149 11.1332 0.0000 0.0000 0.0000 -76.4357 27.7010 26.5913 51.1590 -53.4524 -27.1025 -0.0000 -0.0000 3.5273 40.3958 28.2400 21.9315 -7.1250 0.0000 -0.0000 13.2602 64.7078 6.3769 0.0000 0.0000 0.0000 36.9909 22.1107 15.7086 -125.9205 54.5139 -90.5350 0.0000 -0.0000 -9.0969 -44.5332 -19.9456 18.5525 7.1250 -0.0000 -0.0000 -18.0441 -56.0355 5.0002
-14.8009 15.4497 1.3462 -169.5140 -60.1340 180.1830 0.0000 0.0000 0.0000 2.5566 -27.5944 -26.0744 0.0355 1.2154 3.3418 9.0709 -11.2383 -56.5134 3.1076 -10.8672 -31.8334 0.0000 0.0000 0.0000 33.1852 13.9568 17.8784 -0.0013 0.2295 -0.6305 -2.5095 -6.0599 -32.5369 -0.3039 3.5443 -9.7979 3.0980 1.1693 9.3879 3.2257 2.1568 -9.9236 1.4751 0.7193 -16.5011 12.6459 7.1997 -13.5877 -8.1605 8.7666 24.7806 -3.8935 4.0667 11.2290 0.0000 -0.0000 0.0000 -79.0654 29.3037 23.1686 40.2124 -48.1952 -18.5974 -0.0000 -0.0000 4.1913 38.1568 28.4378 20.5136 -7.1250 0.0000 -0.0000 10.0058 64.2691 4.6925 0.0000 -0.0000 0.0000 34.6264 22.0899 7.0711 -131.3337 52.4432 -94.8870 0.0000 -0.0000 -9.7380 -46.7159 -20.3879 20.2990 7.1250 -0.0000 -0.0000 -20.9281 -57.1899 6.4404
-14.3486 15.6237 1.4025 -168.5430 -60.3619 179.5660 0.0000 0.0000 0.0000 -0.2969 -21.1049 -28.7149 0.1345 2.3635 6.5113 6.8743 -16.4440 -48.4084 1.9022 -8.6592 -24.7351 0.0000 0.0000 0.0000 34.0417 14.8436 16.1948 -0.0032 0.3652 -1.0033 -2.3296 -7.3942 -32.2059 -0.3082 3.5694 -9.8682 3.0859 0.5918 9.2942 4.0677 1.4235 -10.1205 2.6313 0.4318 -16.7204 13.1159 7.6973 -13.2958 -8.6897 9.5411 25.9144 -4.0834 4.3781 11.7620 -0.0000 -0.0000 0.0000 -80.7455 29.3668 22.3856 30.0900 -40.9704 -11.4686 -0.0000 -0.0000 6.5474 33.6947 27.2975 17.0034 -7.1250 0.0000 -0.0000 4.2890 61.7400 1.7488 -0.0000 -0.0000 0.0000 31.6170 21.9317 -1.9167 -135.2418 50.6495 -97.9484 0.0000 -0.0000 -10.9383 -50.3556 -20.5704 22.9794 7.1250 -0.0000 -0.0000 -25.9621 -58.5040 8.9593
-13.9601 15.7418 1.4553 -170.2490 -60.7060 180.4720 0.0000 0.0000 0.0000 -6.2823 -13.5320 -30.9472 0.4763 4.4261 12.2786 4.7199 -19.1048 -39.9446 1.0979 -6.6583 -18.7068 0.0000 0.0000 0.0000 33.9115 15.7259 16.2337 -0.0103 0.6558 -1.8021 -2.3620 -8.4258 -32.9904 -0.0596 1.5752 -4.3331 1.5728 0.1523 9.7473 4.5801 0.6409 -10.2294 4.2821 0.3046 -17.1721 13.4590 8.0078 -12.6630 -9.4362 10.1787 26.7645 -4.3674 4.5942 12.1207 0.0000 0.0000 0.0000 -82.1644 27.9984 21.6310 21.7823 -32.7301 -6.4677 -0.0000 -0.0000 12.5411 30.1449 24.9145 13.7468 -7.1250 0.0000 -0.0000 0.6860 58.2203 0.2219 0.0000 0.0000 0.0000 28.7514 21.9936 -10.9591 -138.3575 49.0135 -100.3297 0.0000 -0.0000 -12.6583 -53.5486 -22.3270 27.2170 7.1250 -0.0000 -0.0000 -31.9396 -61.7439 13.7796
-13.6072 15.8014 1.4828 -170.9480 -61.1475 180.4370 0.0000 0.0000 0.0000 -11.0875 -6.3156 -33.6164 1.2679 7.1371 20.1221 4.2676 -14.1418 -37.5824 1.9052 -8.6657 -24.7551 0.0000 0.0000 0.0000 34.2650 16.2279 16.5138 -0.0236 0.9927 -2.7286 -2.0681 -11.1485 -33.0497 -0.2025 2.8975 -7.9934 0.3061 -0.0888 10.1294 5.0820 0.1491 -10.3917 5.7414 0.2920 -17.6278 13.5817 8.0533 -12.3435 -9.9930 10.4083 27.4979 -4.6046 4.6232 12.4243 -0.0000 0.0000 0.0000 -82.9866 27.7687 20.9654 18.1208 -28.3115 -4.6064 -0.0000 -0.0000 19.4471 30.1062 22.7040 12.6147 -7.1250 0.0000 -0.0000 1.2131 55.7861 0.3211 -0.0000 0.0000 0.0000 25.7751 22.3193 -20.8268 -140.3927 47.8355 -101.8524 0.0000 -0.0000 -15.1044 -54.2358 -22.3095 27.7908 7.1250 -0.0000 -0.0000 -33.0975 -61.9504 14.5025
-13.2834 15.8317 1.5027 -170.0460 -61.5387 179.4280 0.0000 0.0000 0.0000 -13.4429 -1.4188 -35.8277 2.5228 9.8792 28.5863 3.8349 -15.1054 -35.6220 1.9863 -8.8375 -25.2883 0.0000 0.0000 0.0000 35.3555 17.0110 16.6078 -0.0446 1.3634 -3.7493 -1.9014 -13.2684 -33.6541 -0.2555 3.2522 -8.9816 -0.1966 -0.1792 10.0109 5.5876 -0.0346 -10.5751 6.6891 0.3145 -17.7863 13.4586 7.8978 -12.4809 -10.5896 10.3724 27.7520 -4.8365 4.5060 12.5783 0.0000 -0.0000 0.0000 -83.1579 27.7356 21.1163 17.3069 -27.2606 -4.2270 -0.0000 -0.0000 22.4560 29.9742 22.5066 12.4497 -7.1250 0.0000 -0.0000 1.1137 55.5394 0.2881 0.0000 -0.0000 0.0000 23.4278 23.0506 -30.8176 -141.9732 46.8564 -103.0149 0.0000 -0.0000 -16.4441 -56.7200 -22.8719 30.6318 7.1250 -0.0000 -0.0000 -38.1312 -63.4760 18.4123
-13.0181 15.8296 1.5278 -167.9770 -61.8310 177.4530 0.0000 0.0000 0.0000 -14.2129 1.6199 -36.5285 4.0547 12.2328 36.5607 3.7218 -13.3443 -34.9884 2.7143 -10.2175 -29.6839 0.0000 0.0000 0.0000 36.0042 15.5906 15.1413 -0.0526 1.4795 -4.0693 -1.7260 -13.1864 -32.5640 -0.3057 3.5548 -9.8275 0.0587 -0.1957 9.3984 6.1041 -0.0146 -10.8085 7.1487 0.3145 -17.6929 13.0850 7.6178 -12.4674 -11.0249 10.1791 27.9027 -4.9906 4.3152 12.6073 -0.0000 -0.0000 0.0000 -82.9938 31.9615 23.7424 23.0037 -34.0928 -7.1403 -0.0000 -0.0000 19.0938 29.1870 25.6695 13.6023 -7.1250 0.0000 -0.0000 -0.6475 58.8114 -0.2186 -0.0000 -0.0000 0.0000 21.7701 24.6958 -40.0985 -143.3272 45.9704 -103.9956 0.0000 -0.0000 -16.9775 -58.8187 -23.3947 33.2693 7.1250 -0.0000 -0.0000 -43.0174 -64.7970 22.4989
-12.7797 15.8175 1.5454 -166.5590 -62.1962 175.7130 0.0000 0.0000 0.0000 -14.5076 3.4103 -35.6229 5.6030 14.0323 43.3669 3.2579 -13.8505 -32.7147 2.9838 -10.6688 -31.1710 0.0000 0.0000 0.0000 36.4022 14.2484 14.0143 -0.0526 1.4804 -4.0716 -1.7024 -12.0852 -31.5540 -0.1409 2.4189 -6.6650 -0.3371 -0.1069 9.0786 6.4977 0.0488 -10.9668 7.8369 0.4233 -17.7133 12.3436 7.1888 -12.3002 -11.0389 9.7428 27.7876 -4.9430 4.0405 12.4085 -0.0000 -0.0000 0.0000 -83.1416 28.8745 23.0925 21.4489 -32.3486 -6.2884 -0.0000 -0.0000 15.9436 31.3487 24.2734 14.0592 -7.1250 0.0000 -0.0000 2.2376 57.8017 0.7014 -0.0000 -0.0000 0.0000 20.8042 26.5367 -47.9994 -144.7272 45.0059 -104.9941 0.0000 -0.0000 -16.9192 -62.6467 -24.0229 38.2008 7.1250 -0.0000 -0.0000 -53.1268 -66.6568 31.2280
-12.5805 15.8077 1.5814 -164.7980 -63.2119 173.3330 0.0000 0.0000 0.0000 -14.4518 3.4935 -33.3652 6.8419 15.1973 48.2738 2.5341 -13.7173 -28.8563 3.0897 -10.8389 -31.7385 0.0000 0.0000 0.0000 36.1379 10.8888 12.3096 -0.0509 1.4557 -4.0037 -1.5443 -10.4081 -29.2645 -0.1542 2.5301 -6.9731 -0.4935 -0.0497 8.8055 6.6706 0.1072 -11.0213 8.1124 0.4810 -17.6192 11.2438 6.5637 -12.4432 -10.6528 8.9758 27.7986 -4.7230 3.6208 12.2396 -0.0000 -0.0000 0.0000 -83.0155 28.2137 23.7070 23.9666 -35.1289 -7.6873 -0.0000 -0.0000 10.9734 31.6719 25.2363 14.7368 -7.1250 0.0000 -0.0000 2.3707 58.9424 0.8081 -0.0000 -0.0000 0.0000 20.8794 28.9039 -53.8509 -145.9701 44.1068 -105.8662 0.0000 -0.0000 -16.3580 -65.3295 -25.1757 42.8037 7.1250 -0.0000 -0.0000 -63.1433 -68.3872 41.0637
-12.4229 15.8035 1.6144 -161.5480 -64.8948 169.5850 0.0000 0.0000 0.0000 -13.4827 1.0669 -29.9832 7.5571 15.7837 50.9513 1.8589 -12.9355 -24.7598 3.1445 -10.9253 -32.0284 0.0000 0.0000 0.0000 36.7215 8.3956 11.4910 -0.0603 1.5841 -4.3575 -1.4119 -10.2389 -28.2373 -0.2123 2.9666 -8.1859 -0.3693 -0.0530 8.5639 6.7988 0.1174 -11.3052 8.2126 0.4865 -17.8309 10.3660 5.8941 -12.6697 -10.1589 8.0715 28.3199 -4.5381 3.1609 12.2971 0.0000 -0.0000 0.0000 -82.4655 27.2001 25.3383 26.2431 -37.4477 -9.0350 -0.0000 -0.0000 6.7969 31.7159 26.6459 15.4910 -7.1250 0.0000 -0.0000 2.0269 60.5023 0.7663 0.0000 -0.0000 0.0000 22.0620 31.0506 -56.5339 -147.5016 42.9410 -106.9209 0.0000 -0.0000 -17.0006 -67.6189 -24.6827 45.4013 7.1250 -0.0000 -0.0000 -69.4094 -68.2031 46.2113
-12.2996 15.8143 1.6358 -157.9450 -67.2712 165.5740 0.0000 0.0000 0.0000 -12.7952 -3.7171 -25.9739 7.6130 15.8271 51.1565 1.2159 -11.6558 -20.1396 3.0554 -10.7842 -31.5556 0.0000 0.0000 0.0000 37.7934 8.2017 12.3551 -0.1018 2.0571 -5.6635 -1.3552 -12.0849 -29.3222 -0.1211 2.2436 -6.1794 -0.6470 -0.0331 7.7170 6.5842 0.0564 -11.5125 8.0959 0.4643 -17.5141 8.9787 4.7384 -13.0096 -9.1756 6.4422 28.5278 -4.1635 2.3953 12.1386 -0.0000 -0.0000 0.0000 -81.4584 24.9918 28.0173 27.4680 -38.6218 -9.7898 -0.0000 -0.0000 6.2571 32.4991 26.9144 16.0857 -7.1250 0.0000 -0.0000 2.9038 61.0001 1.1325 -0.0000 -0.0000 0.0000 24.1049 33.7322 -56.1534 -148.9045 41.8141 -107.8666 0.0000 -0.0000 -16.7837 -67.6047 -25.0472 45.7742 7.1250 -0.0000 -0.0000 -70.2463 -68.5069 47.3431
-12.1833 15.8372 1.6785 -153.3400 -69.9549 160.9690 0.0000 0.0000 0.0000 -12.3449 -10.5253 -21.9289 6.9569 15.2954 48.7109 0.6583 -15.1167 -16.7752 3.2084 -11.0250 -32.3643 0.0000 0.0000 0.0000 38.8135 8.6621 12.9975 -0.1463 2.4651 -6.7929 -1.2978 -14.9706 -31.4759 -0.1291 2.3163 -6.3807 -0.9093 0.1828 7.2986 6.1165 0.2448 -12.1627 7.6906 0.5696 -18.0977 7.0593 3.2071 -13.5166 -7.7440 4.2821 29.0810 -3.6083 1.3800 12.1244 0.0000 -0.0000 0.0000 -80.5088 22.4048 31.3483 28.0745 -39.1847 -10.1707 -0.0000 -0.0000 8.4260 32.2901 26.7118 15.8575 -7.1250 0.0000 -0.0000 2.7061 60.7230 1.0375 0.0000 -0.0000 0.0000 27.4694 36.5814 -51.6279 -149.5782 41.2522 -108.3133 0.0000 -0.0000 -15.6300 -68.4053 -23.3703 45.0616 7.1250 -0.0000 -0.0000 -68.8637 -67.1473 44.3714
-12.0744 15.8610 1.7437 -148.4180 -72.7210 155.7430 0.0000 0.0000 0.0000 -12.8387 -17.2159 -17.5898 5.7120 14.1433 43.8145 0.3815 -18.9476 -16.4532 3.0256 -10.7364 -31.3961 0.0000 0.0000 0.0000 39.8440 10.5763 14.5970 -0.1888 2.7984 -7.7179 -1.4980 -18.0523 -35.5222 -0.0343 1.1963 -3.2892 -1.4934 0.5182 6.8477 5.4802 0.5785 -12.2241 7.1686 0.7514 -17.9095 4.7444 1.4153 -14.3837 -6.2588 1.8812 28.7585 -2.9633 0.2551 11.9071 0.0000 -0.0000 0.0000 -79.9328 17.8675 34.9900 27.5806 -38.7273 -9.8602 -0.0000 -0.0000 10.1264 31.8065 26.2075 15.3170 -7.1250 0.0000 -0.0000 2.2651 60.0448 0.8318 0.0000 -0.0000 0.0000 29.3905 39.7263 -45.9681 -147.5267 42.9212 -106.9380 0.0000 -0.0000 -11.5314 -72.1090 -24.9581 52.5821 7.1250 -0.0000 -0.0000 -86.1640 -68.0719 62.1927
-11.9738 15.8883 1.8328 -142.7770 -75.2229 149.5790 0.0000 0.0000 0.0000 -14.3359 -21.2614 -13.6217 4.6240 12.9474 39.1720 0.3014 -21.5660 -17.4116 2.4774 -9.7967 -28.3210 0.0000 0.0000 0.0000 40.3810 11.9939 15.8026 -0.1985 2.8692 -7.9148 -2.1418 -19.3284 -39.9270 -0.0009 -0.1944 0.5342 -1.9516 1.1542 7.2250 4.7120 1.3448 -12.3715 6.3646 1.1318 -18.4532 2.3009 -0.6167 -15.0588 -5.1071 -0.6732 28.2843 -2.4502 -0.9862 11.7010 -0.0000 0.0000 0.0000 -79.8593 13.6254 38.9237 27.1855 -38.3555 -9.6140 -0.0000 -0.0000 10.5585 33.0940 26.7091 16.3270 -7.1250 0.0000 -0.0000 3.6952 60.9305 1.4355 -0.0000 0.0000 0.0000 31.3349 43.4230 -38.1560 -140.7749 47.6040 -102.1352 0.0000 -0.0000 -4.2648 -73.7500 -24.3839 54.7776 7.1250 -0.0000 -0.0000 -90.7998 -67.2951 66.1357
